<svg id="Layer_3" enable-background="new 0 0 64 64" viewBox="0 0 64 64" xmlns="http://www.w3.org/2000/svg"><path d="m13 19h4v2h-4z"></path><path d="m54.382 11h-44.764l1 2h42.764z"></path><path d="m57.382 9 2.667-5.333c-7.367 2.213-14.991 3.333-22.698 3.333h-10.702c-7.707 0-15.331-1.12-22.697-3.333l2.666 5.333z"></path><path d="m45 15h8v2h-8z"></path><path d="m47 19h4v2h-4z"></path><path d="m11 15h8v2h-8z"></path><path d="m17 29h-4v12h-6v-2h-2v2h-2v2h2v2h-2v2h2v14h2v-14h6v4h4v-4h1v-2h-1v-2h4v-2h-4zm-4 16h-6v-2h6z"></path><path d="m45 53h8v8h-8z"></path><path d="m11 53h8v8h-8z"></path><path d="m45 19h-1c-.552 0-1-.447-1-1v-3h-22v3c0 .553-.448 1-1 1h-1v2h26z"></path><path d="m7 23h50v4h-50z"></path><path d="m61 43v-2h-2v-2h-2v2h-6v-12h-4v12h-4v2h4v2h-1v2h1v4h4v-4h6v14h2v-14h2v-2h-2v-2zm-4 2h-6v-2h6z"></path></svg>